<mxfile host="app.diagrams.net" modified="2022-09-19T17:30:46.548Z" agent="5.0 (Windows NT 10.0; Win64; x64) AppleWebKit/537.36 (KHTML, like Gecko) Chrome/104.0.5112.102 Safari/537.36 OPR/90.0.4480.84" etag="CRPrkD-0qwadpaz4OzEt" version="20.3.3" type="github">
  <diagram id="dV5AvFHwJiYVH1rTCUHf" name="Página-1">
    <mxGraphModel dx="592" dy="463" grid="1" gridSize="10" guides="1" tooltips="1" connect="1" arrows="1" fold="1" page="1" pageScale="1" pageWidth="827" pageHeight="1169" math="0" shadow="0">
      <root>
        <mxCell id="0" />
        <mxCell id="1" parent="0" />
        <mxCell id="anzrbEpyw_3kxmckHt4E-35" value="expLógica" style="rhombus;whiteSpace=wrap;html=1;" vertex="1" parent="1">
          <mxGeometry x="210" y="70" width="210" height="60" as="geometry" />
        </mxCell>
        <mxCell id="anzrbEpyw_3kxmckHt4E-37" style="edgeStyle=orthogonalEdgeStyle;rounded=0;orthogonalLoop=1;jettySize=auto;html=1;exitX=1;exitY=0.5;exitDx=0;exitDy=0;" edge="1" parent="1">
          <mxGeometry relative="1" as="geometry">
            <mxPoint x="165" y="180" as="sourcePoint" />
            <mxPoint x="165" y="180" as="targetPoint" />
          </mxGeometry>
        </mxCell>
        <mxCell id="anzrbEpyw_3kxmckHt4E-38" value="acciones A" style="rounded=0;whiteSpace=wrap;html=1;" vertex="1" parent="1">
          <mxGeometry x="440" y="130" width="140" height="20" as="geometry" />
        </mxCell>
        <mxCell id="anzrbEpyw_3kxmckHt4E-39" value="" style="edgeStyle=segmentEdgeStyle;endArrow=classic;html=1;rounded=0;" edge="1" parent="1">
          <mxGeometry width="50" height="50" relative="1" as="geometry">
            <mxPoint x="420" y="100" as="sourcePoint" />
            <mxPoint x="510" y="130" as="targetPoint" />
            <Array as="points">
              <mxPoint x="510" y="100" />
            </Array>
          </mxGeometry>
        </mxCell>
        <mxCell id="anzrbEpyw_3kxmckHt4E-40" value="" style="shape=partialRectangle;whiteSpace=wrap;html=1;bottom=0;right=0;fillColor=none;direction=west;" vertex="1" parent="1">
          <mxGeometry x="210" y="150" width="300" height="30" as="geometry" />
        </mxCell>
        <mxCell id="anzrbEpyw_3kxmckHt4E-41" value="Verdadero" style="text;html=1;resizable=0;autosize=1;align=center;verticalAlign=middle;points=[];fillColor=none;strokeColor=none;rounded=0;" vertex="1" parent="1">
          <mxGeometry x="410" y="80" width="80" height="30" as="geometry" />
        </mxCell>
        <mxCell id="anzrbEpyw_3kxmckHt4E-42" value="Falso" style="text;html=1;resizable=0;autosize=1;align=center;verticalAlign=middle;points=[];fillColor=none;strokeColor=none;rounded=0;" vertex="1" parent="1">
          <mxGeometry x="155" y="80" width="50" height="30" as="geometry" />
        </mxCell>
        <mxCell id="anzrbEpyw_3kxmckHt4E-43" value="" style="endArrow=classic;html=1;rounded=0;" edge="1" parent="1">
          <mxGeometry width="50" height="50" relative="1" as="geometry">
            <mxPoint x="314.63" y="40" as="sourcePoint" />
            <mxPoint x="314.63" y="70" as="targetPoint" />
          </mxGeometry>
        </mxCell>
        <mxCell id="anzrbEpyw_3kxmckHt4E-44" value="" style="endArrow=classic;html=1;rounded=0;" edge="1" parent="1">
          <mxGeometry width="50" height="50" relative="1" as="geometry">
            <mxPoint x="314.63" y="180" as="sourcePoint" />
            <mxPoint x="314.63" y="210" as="targetPoint" />
          </mxGeometry>
        </mxCell>
        <mxCell id="anzrbEpyw_3kxmckHt4E-46" value="acciones A" style="rounded=0;whiteSpace=wrap;html=1;" vertex="1" parent="1">
          <mxGeometry x="60" y="130" width="140" height="20" as="geometry" />
        </mxCell>
        <mxCell id="anzrbEpyw_3kxmckHt4E-47" value="Verdadero" style="text;html=1;resizable=0;autosize=1;align=center;verticalAlign=middle;points=[];fillColor=none;strokeColor=none;rounded=0;" vertex="1" parent="1">
          <mxGeometry x="30" y="80" width="80" height="30" as="geometry" />
        </mxCell>
      </root>
    </mxGraphModel>
  </diagram>
</mxfile>
